<svg width="353" height="289" viewBox="0 0 353 289" fill="none" xmlns="http://www.w3.org/2000/svg">
<path d="M194 289H172.614V154.686H137.879L137.428 215.305H115.729L116.689 25.3232C93.0406 25.4894 75.0177 26.2342 61.2439 27.7217C45.2216 29.4521 36.1311 32.0905 30.8513 35.1299C26.3713 37.7098 24.3806 40.6916 23.1951 45.4248C21.7688 51.1222 21.698 58.5813 21.698 70.0693H0.000763252C0.000761129 59.531 -0.0719123 49.022 2.14725 40.1611C4.60794 30.3369 9.91423 22.1646 20.0174 16.3477C29.3236 10.9903 42.118 7.98082 58.9129 6.16699C75.9231 4.33009 98.2784 3.61236 127.537 3.6123H138.387L137.951 132.94H172.614V0H194V289Z" fill="#3b3b3b"/>
<path d="M236.31 133.627C259.959 133.461 277.982 132.716 291.756 131.228C307.778 129.498 316.867 126.859 322.147 123.82C326.628 121.24 328.619 118.259 329.803 113.526C331.23 107.828 331.302 85.9194 331.302 74.4307H352.999C352.999 84.9695 353.071 109.928 350.851 118.789C348.39 128.614 343.085 136.785 332.982 142.602C331.82 143.27 330.603 143.902 329.331 144.5C330.603 145.098 331.82 145.73 332.982 146.398C343.085 152.215 348.39 160.386 350.851 170.211C353.071 179.073 352.999 278.461 352.999 289H331.302C331.302 277.511 331.23 181.173 329.803 175.474C328.619 170.741 326.628 167.76 322.147 165.18C316.867 162.141 307.778 159.502 291.756 157.772C277.982 156.284 259.959 155.539 236.31 155.373V289H215V0H236.31V133.627Z" fill="#3b3b3b"/>
</svg>